<mxfile host="app.diagrams.net" agent="Mozilla/5.0 (Windows NT 10.0; Win64; x64) AppleWebKit/537.36 (KHTML, like Gecko) Chrome/132.0.0.0 Safari/537.36" version="26.0.12">
  <diagram name="Page-1" id="cPBhdx0atCIc8VIGkDfx">
    <mxGraphModel dx="2044" dy="652" grid="1" gridSize="10" guides="1" tooltips="1" connect="1" arrows="1" fold="1" page="1" pageScale="1" pageWidth="850" pageHeight="1100" math="0" shadow="0">
      <root>
        <mxCell id="0" />
        <mxCell id="1" parent="0" />
        <mxCell id="B9Ovj7SkUMSnQgGKJhs3-1" value="Do - Calculate Photon Energy" style="rounded=1;whiteSpace=wrap;html=1;" parent="1" vertex="1">
          <mxGeometry x="30" y="145" width="610" height="20" as="geometry" />
        </mxCell>
        <mxCell id="B9Ovj7SkUMSnQgGKJhs3-2" value="If - Condition for Process to happen" style="rounded=1;whiteSpace=wrap;html=1;" parent="1" vertex="1">
          <mxGeometry x="70" y="165" width="530" height="20" as="geometry" />
        </mxCell>
        <mxCell id="B9Ovj7SkUMSnQgGKJhs3-3" value="Select - Calculating Ion Density at photon position (If needed for proba calc.)" style="rounded=1;whiteSpace=wrap;html=1;" parent="1" vertex="1">
          <mxGeometry x="100" y="185" width="470" height="20" as="geometry" />
        </mxCell>
        <mxCell id="B9Ovj7SkUMSnQgGKJhs3-4" value="Calling proba function for the process at hand" style="rounded=1;whiteSpace=wrap;html=1;" parent="1" vertex="1">
          <mxGeometry x="100" y="205" width="470" height="20" as="geometry" />
        </mxCell>
        <mxCell id="B9Ovj7SkUMSnQgGKJhs3-5" value="Creating a Random Variable&amp;nbsp;" style="rounded=1;whiteSpace=wrap;html=1;" parent="1" vertex="1">
          <mxGeometry x="100" y="225" width="470" height="20" as="geometry" />
        </mxCell>
        <mxCell id="B9Ovj7SkUMSnQgGKJhs3-6" value="If - Comparing proba and random variable&amp;nbsp;" style="rounded=1;whiteSpace=wrap;html=1;" parent="1" vertex="1">
          <mxGeometry x="100" y="245" width="470" height="20" as="geometry" />
        </mxCell>
        <mxCell id="B9Ovj7SkUMSnQgGKJhs3-10" value="" style="curved=1;endArrow=classic;html=1;rounded=0;exitX=0;exitY=0.75;exitDx=0;exitDy=0;" parent="1" source="B9Ovj7SkUMSnQgGKJhs3-2" edge="1">
          <mxGeometry width="50" height="50" relative="1" as="geometry">
            <mxPoint x="30" y="260" as="sourcePoint" />
            <mxPoint x="90" y="195" as="targetPoint" />
            <Array as="points">
              <mxPoint x="10" y="195" />
            </Array>
          </mxGeometry>
        </mxCell>
        <mxCell id="B9Ovj7SkUMSnQgGKJhs3-11" value="&lt;font style=&quot;font-size: 14px;&quot;&gt;If True&lt;/font&gt;" style="edgeLabel;html=1;align=center;verticalAlign=middle;resizable=0;points=[];" parent="B9Ovj7SkUMSnQgGKJhs3-10" vertex="1" connectable="0">
          <mxGeometry x="-0.4836" y="2" relative="1" as="geometry">
            <mxPoint x="-17" y="-2" as="offset" />
          </mxGeometry>
        </mxCell>
        <mxCell id="B9Ovj7SkUMSnQgGKJhs3-12" value="" style="curved=1;endArrow=classic;html=1;rounded=0;exitX=0;exitY=0.75;exitDx=0;exitDy=0;" parent="1" edge="1">
          <mxGeometry width="50" height="50" relative="1" as="geometry">
            <mxPoint x="100" y="255" as="sourcePoint" />
            <mxPoint x="110" y="280" as="targetPoint" />
            <Array as="points">
              <mxPoint x="40" y="270" />
            </Array>
          </mxGeometry>
        </mxCell>
        <mxCell id="B9Ovj7SkUMSnQgGKJhs3-13" value="&lt;font style=&quot;font-size: 14px;&quot;&gt;If True&lt;/font&gt;" style="edgeLabel;html=1;align=center;verticalAlign=middle;resizable=0;points=[];" parent="B9Ovj7SkUMSnQgGKJhs3-12" vertex="1" connectable="0">
          <mxGeometry x="-0.4836" y="2" relative="1" as="geometry">
            <mxPoint x="-17" y="2" as="offset" />
          </mxGeometry>
        </mxCell>
        <mxCell id="B9Ovj7SkUMSnQgGKJhs3-14" value="Sample created particles&#39; energies and assign weights" style="rounded=1;whiteSpace=wrap;html=1;" parent="1" vertex="1">
          <mxGeometry x="125" y="265" width="420" height="20" as="geometry" />
        </mxCell>
        <mxCell id="B9Ovj7SkUMSnQgGKJhs3-15" value="Do - Advance Positions of Photons&amp;nbsp;" style="rounded=1;whiteSpace=wrap;html=1;" parent="1" vertex="1">
          <mxGeometry x="10" y="125" width="650" height="20" as="geometry" />
        </mxCell>
        <mxCell id="B9Ovj7SkUMSnQgGKJhs3-16" value="Does this advance photons from a vertex to the other? or from where to where exactly?" style="text;html=1;align=center;verticalAlign=middle;resizable=0;points=[];autosize=1;strokeColor=none;fillColor=none;" parent="1" vertex="1">
          <mxGeometry x="-485" y="120" width="490" height="30" as="geometry" />
        </mxCell>
        <mxCell id="B9Ovj7SkUMSnQgGKJhs3-17" value="Making the Diagnostics (reporting numbers, energies, and weights, as well as,creating the particles" style="rounded=1;whiteSpace=wrap;html=1;" parent="1" vertex="1">
          <mxGeometry x="184.06" y="305" width="301.89" height="55" as="geometry" />
        </mxCell>
        <mxCell id="B9Ovj7SkUMSnQgGKJhs3-18" value="Decaying the photons" style="rounded=1;whiteSpace=wrap;html=1;" parent="1" vertex="1">
          <mxGeometry x="125" y="360" width="420" height="40" as="geometry" />
        </mxCell>
        <mxCell id="B9Ovj7SkUMSnQgGKJhs3-19" value="Deleting the photon" style="rounded=1;whiteSpace=wrap;html=1;" parent="1" vertex="1">
          <mxGeometry x="275" y="450" width="120" height="60" as="geometry" />
        </mxCell>
        <mxCell id="B9Ovj7SkUMSnQgGKJhs3-20" value="" style="endArrow=none;html=1;rounded=0;entryX=0;entryY=0.5;entryDx=0;entryDy=0;" parent="1" target="B9Ovj7SkUMSnQgGKJhs3-15" edge="1">
          <mxGeometry width="50" height="50" relative="1" as="geometry">
            <mxPoint x="10" y="440" as="sourcePoint" />
            <mxPoint x="260" y="380" as="targetPoint" />
          </mxGeometry>
        </mxCell>
        <mxCell id="B9Ovj7SkUMSnQgGKJhs3-21" value="" style="endArrow=none;html=1;rounded=0;entryX=0;entryY=0.5;entryDx=0;entryDy=0;" parent="1" target="B9Ovj7SkUMSnQgGKJhs3-1" edge="1">
          <mxGeometry width="50" height="50" relative="1" as="geometry">
            <mxPoint x="30" y="430" as="sourcePoint" />
            <mxPoint x="30" y="185" as="targetPoint" />
          </mxGeometry>
        </mxCell>
        <mxCell id="B9Ovj7SkUMSnQgGKJhs3-22" value="" style="endArrow=none;html=1;rounded=0;entryX=0;entryY=0.5;entryDx=0;entryDy=0;" parent="1" target="B9Ovj7SkUMSnQgGKJhs3-2" edge="1">
          <mxGeometry width="50" height="50" relative="1" as="geometry">
            <mxPoint x="70" y="410" as="sourcePoint" />
            <mxPoint x="70" y="210" as="targetPoint" />
          </mxGeometry>
        </mxCell>
        <mxCell id="B9Ovj7SkUMSnQgGKJhs3-23" value="" style="endArrow=none;html=1;rounded=0;entryX=0;entryY=0.5;entryDx=0;entryDy=0;" parent="1" target="B9Ovj7SkUMSnQgGKJhs3-6" edge="1">
          <mxGeometry width="50" height="50" relative="1" as="geometry">
            <mxPoint x="100" y="400" as="sourcePoint" />
            <mxPoint x="99" y="290" as="targetPoint" />
          </mxGeometry>
        </mxCell>
        <mxCell id="B9Ovj7SkUMSnQgGKJhs3-24" value="incrementing photon position" style="rounded=1;whiteSpace=wrap;html=1;" parent="1" vertex="1">
          <mxGeometry x="175" y="410" width="320" height="10" as="geometry" />
        </mxCell>
        <mxCell id="B9Ovj7SkUMSnQgGKJhs3-39" value="If - Condition for making the diagnostics" style="rounded=1;whiteSpace=wrap;html=1;" parent="1" vertex="1">
          <mxGeometry x="125" y="285" width="420" height="20" as="geometry" />
        </mxCell>
        <mxCell id="B9Ovj7SkUMSnQgGKJhs3-40" value="" style="endArrow=none;html=1;rounded=0;entryX=0;entryY=0.5;entryDx=0;entryDy=0;" parent="1" target="B9Ovj7SkUMSnQgGKJhs3-39" edge="1">
          <mxGeometry width="50" height="50" relative="1" as="geometry">
            <mxPoint x="125" y="350" as="sourcePoint" />
            <mxPoint x="310" y="90" as="targetPoint" />
          </mxGeometry>
        </mxCell>
      </root>
    </mxGraphModel>
  </diagram>
</mxfile>
